Coordinates
version=1
nRows=26
nColumns=24
inDegrees=yes

Units are S.I. units (second, meters, Newtons, ...)
Angles are in degrees.

endheader
time	pelvis_tilt	pelvis_list	pelvis_rotation	pelvis_tx	pelvis_ty	pelvis_tz	hip_flexion_r	hip_adduction_r	hip_rotation_r	knee_angle_r	ankle_angle_r	subtalar_angle_r	mtp_angle_r	hip_flexion_l	hip_adduction_l	hip_rotation_l	knee_angle_l	ankle_angle_l	subtalar_angle_l	mtp_angle_l	lumbar_extension	lumbar_bending	lumbar_rotation
      1.29383333	     -4.84198712	     -3.30964539	     -7.87822046	      0.10518056	      0.95175379	      0.30302436	    -15.24120907	      4.81048714	     -1.35193604	    -10.86237627	      9.55870954	      4.80534239	     12.27263918	     29.60931228	     -3.81816266	     -8.37197129	      1.80387366	      1.33516637	     -2.88559293	      1.87504310	      0.94863427	      6.58519747	     13.96104574
      1.29800000	     -4.92096638	     -3.11326216	     -7.90768806	      0.11159287	      0.95124901	      0.30271455	    -15.25868027	      4.51020088	     -1.51785015	    -11.28763899	      9.13004601	      4.82353674	     16.21262906	     29.64792278	     -3.60041435	     -8.32284511	      1.43698975	      0.83153746	     -3.45187328	      3.33089144	      1.15454397	      6.35716646	     13.94696918
      1.30216667	     -5.04071960	     -2.94829815	     -7.94360573	      0.11797921	      0.95076559	      0.30243200	    -15.23851027	      4.26688630	     -1.51428475	    -11.70918064	      8.75539701	      4.65915825	     16.25905889	     29.74052761	     -3.42489479	     -8.20676778	      1.01502411	      0.33748639	     -4.05615232	      3.33638455	      1.38774330	      6.19964197	     13.97929273
      1.30633333	     -5.15335487	     -2.76416086	     -7.96781167	      0.12440302	      0.95033627	      0.30212368	    -15.18822950	      4.00026677	     -1.57347968	    -12.19482001	      8.34252077	      4.52876894	     16.36059043	     29.82740610	     -3.22301010	     -8.05586634	      0.57011012	     -0.21564145	     -4.77923873	      3.36127313	      1.63108011	      5.99764232	     13.97992794
      1.31050000	     -5.23569079	     -2.54382956	     -7.97570459	      0.13087989	      0.94998741	      0.30177035	    -15.14581225	      3.69189219	     -1.66637258	    -12.71764911	      7.93744271	      4.38818350	     16.61412061	     29.88203247	     -2.97178874	     -7.88009102	      0.11051035	     -0.79011281	     -5.55167929	      3.43645728	      1.83542601	      5.74944039	     13.96059811
      1.31466667	     -5.37309827	     -2.34455027	     -7.97439377	      0.13736275	      0.94963233	      0.30143430	    -15.04347822	      3.42660129	     -1.69594168	    -13.22626695	      7.38793268	      4.21003809	     16.78469110	     30.03364498	     -2.75153829	     -7.75090614	     -0.44066365	     -1.39807223	     -6.19707790	      3.48234892	      2.11922162	      5.53998992	     13.94831184
      1.31883333	     -5.48948784	     -2.12017363	     -7.96090122	      0.14386908	      0.94935191	      0.30105248	    -14.92782030	      3.13126076	     -1.75297961	    -13.79739304	      6.85924051	      3.99164368	     17.02356391	     30.15350751	     -2.49319895	     -7.55931260	     -0.98006653	     -2.03571754	     -6.95615986	      3.54432963	      2.37288771	      5.29753299	     13.91841336
      1.32300000	     -5.58142304	     -1.88466399	     -7.94736711	      0.15038437	      0.94915929	      0.30064346	    -14.79867382	      2.81646628	     -1.82730787	    -14.43274683	      6.29345721	      3.74262495	     17.40399944	     30.24734560	     -2.21857807	     -7.34800064	     -1.53301188	     -2.65485209	     -7.74301093	      3.64099889	      2.59084477	      5.03974423	     13.87612413
      1.32716667	     -5.62864397	     -1.61282215	     -7.86828284	      0.15701697	      0.94905650	      0.30015448	    -14.73223332	      2.46605678	     -2.00420771	    -15.00919616	      5.54550967	      3.55489833	     21.70537812	     30.31436801	     -1.87443215	     -7.16193353	     -2.12398522	     -3.29810452	     -8.42175502	      4.69142182	      2.79043271	      4.70957105	     13.81497210
      1.33133333	     -5.78903267	     -1.37446358	     -7.85094401	      0.16354966	      0.94890339	      0.29975678	    -14.48561592	      2.17167173	     -1.98256305	    -15.70730462	      4.91589282	      3.17402546	     21.77867755	     30.52859354	     -1.61378589	     -7.04361502	     -2.79247002	     -3.89089747	     -9.02400717	      4.68729850	      3.10753785	      4.45863419	     13.77448553
      1.33550000	     -5.88141885	     -1.11155434	     -7.78634070	      0.17013959	      0.94887038	      0.29926869	    -14.30131495	      1.84654153	     -2.03849406	    -16.41004216	      4.22151881	      2.84151044	     21.96378290	     30.66300033	     -1.29056197	     -6.84207214	     -3.44584513	     -4.47743495	     -9.70694246	      4.68915863	      3.35229917	      4.15819504	     13.70984595
      1.33966667	     -5.98252241	     -0.85245809	     -7.70373532	      0.17674839	      0.94888993	      0.29876251	    -14.09286010	      1.53327051	     -2.08301395	    -17.12224241	      3.40052048	      2.54078264	     22.12623519	     30.83044705	     -0.96979956	     -6.69485880	     -4.15553662	     -5.02750457	    -10.23614116	      4.68709925	      3.60955018	      3.86295519	     13.64980691
      1.34383333	     -6.06832234	     -0.58038347	     -7.61472665	      0.18335660	      0.94897214	      0.29822153	    -13.85920578	      1.20175131	     -2.14319039	    -17.90287926	      2.56887406	      2.21314685	     22.33240308	     30.97768479	     -0.62738599	     -6.52001477	     -4.86336360	     -5.53949332	    -10.78643344	      4.68245498	      3.84987496	      3.54776840	     13.57687486
      1.34800000	     -6.13853612	     -0.30420307	     -7.51440155	      0.18997091	      0.94912328	      0.29764139	    -13.61133270	      0.86330286	     -2.20591688	    -18.72861796	      1.67720102	      1.87976740	     22.58648362	     31.10971265	     -0.27170522	     -6.33761491	     -5.58243311	     -5.99360924	    -11.29864509	      4.67374557	      4.07236898	      3.22451262	     13.49646920
      1.35216667	     -6.20993352	     -0.01612819	     -7.42078186	      0.19656501	      0.94931893	      0.29702145	    -13.31307052	      0.50494135	     -2.25783028	    -19.63398354	      0.78391836	      1.52685491	     23.11722843	     31.22992228	      0.10176550	     -6.10264587	     -6.28547605	     -6.37089658	    -11.90701748	      4.65074508	      4.28473094	      2.90291356	     13.39238626
      1.35633333	     -6.20115774	      0.29777771	     -7.27586506	      0.20324153	      0.94965031	      0.29633702	    -13.10156349	      0.10740719	     -2.41550685	    -20.50768248	     -0.29400460	      1.20966208	     28.08026124	     31.28049589	      0.52688290	     -5.95865772	     -7.02051836	     -6.72187351	    -12.25287659	      4.36772147	      4.42152898	      2.51778929	     13.31613736
      1.36050000	     -6.27000584	      0.57109396	     -7.16458702	      0.20981873	      0.94993580	      0.29569899	    -12.75159954	     -0.22943536	     -2.43978885	    -21.48460512	     -1.33033397	      0.85406863	     28.11220715	     31.43022780	      0.88155782	     -5.84476022	     -7.80483688	     -6.97820198	    -12.53098575	      4.35499493	      4.63628672	      2.20386835	     13.24463833
      1.36466667	     -6.30292375	      0.85515933	     -7.03657890	      0.21639737	      0.95030111	      0.29500980	    -12.40965839	     -0.58404903	     -2.48454035	    -22.50289114	     -2.42166549	      0.51887545	     28.17840507	     31.52352467	      1.26671601	     -5.69146173	     -8.55790513	     -7.19186000	    -12.83675722	      4.33317286	      4.80514355	      1.87319279	     13.16276309
      1.36883333	     -6.32699796	      1.13732843	     -6.90191140	      0.22295844	      0.95070482	      0.29428099	    -12.04494867	     -0.94074163	     -2.52699408	    -23.56499114	     -3.54407533	      0.19364135	     28.32338029	     31.60344735	      1.65951085	     -5.53483968	     -9.31225302	     -7.35071969	    -13.18790211	      4.28779201	      4.96343841	      1.54091186	     13.06676308
      1.37300000	     -6.33885006	      1.42091216	     -6.76953216	      0.22948195	      0.95115319	      0.29352927	    -11.64902100	     -1.30665967	     -2.56980686	    -24.69105976	     -4.72621365	     -0.11167208	     28.60214480	     31.65063464	      2.05863630	     -5.36997024	    -10.03005037	     -7.46180906	    -13.49068363	      4.19774275	      5.10301732	      1.21066574	     12.96821215
      1.37716667	     -6.30449443	      1.73341220	     -6.63364797	      0.23601214	      0.95167427	      0.29277446	    -11.26961232	     -1.71286142	     -2.62617196	    -25.86705368	     -5.88274374	     -0.42402415	     28.66821251	     31.64382336	      2.48553865	     -5.29697183	    -10.74308895	     -7.47739288	    -13.58777713	      4.17256291	      5.18552276	      0.83003921	     12.90370806
      1.38133333	     -6.30364242	      1.99039401	     -6.49869633	      0.24244952	      0.95219052	      0.29199143	    -10.81735640	     -2.05668350	     -2.65167768	    -27.08351337	     -7.19816481	     -0.71211900	     28.79431338	     31.64882228	      2.86391043	     -5.15275270	    -11.41290576	     -7.52218689	    -13.76602195	      4.12000062	      5.29882123	      0.54815377	     12.82214984
      1.38550000	     -6.31992623	      2.28151598	     -6.35031644	      0.24883315	      0.95267242	      0.29113519	    -10.29274886	     -2.44481186	     -2.70814630	    -28.39244277	     -8.38895015	     -1.07018396	     30.01804089	     31.65146738	      3.29690866	     -4.94516612	    -12.03433725	     -7.57812235	    -14.13768441	      3.57678192	      5.42999248	      0.21040704	     12.67384511
      1.38966667	     -6.25564626	      2.53533042	     -6.23173341	      0.25519686	      0.95329521	      0.29037640	     -9.85248354	     -2.79441551	     -2.68614842	    -29.66500819	     -9.75327853	     -1.31075942	     30.11928828	     31.57436252	      3.66329730	     -4.93239212	    -12.69175615	     -7.42856574	    -14.11246512	      3.52068273	      5.45040532	     -0.08386266	     12.64624054
      1.39383333	     -6.23311302	      2.80891607	     -6.11025225	      0.26149283	      0.95386833	      0.28957609	     -9.31055093	     -3.16928932	     -2.68148907	    -31.03062187	    -11.02500046	     -1.61120525	     30.17431031	     31.50094213	      4.05928735	     -4.85432728	    -13.25675733	     -7.32026192	    -14.17909368	      3.47557138	      5.52448787	     -0.39503447	     12.57375301
      1.39800000	     -6.20329325	      3.07216230	     -5.98901605	      0.26771988	      0.95444903	      0.28877276	     -8.74612327	     -3.53378572	     -2.66444061	    -32.42802311	    -12.29192607	     -1.91227628	     30.20836379	     31.40534776	      4.44819638	     -4.78270599	    -13.79413701	     -7.18285353	    -14.26311710	      3.42783467	      5.57922706	     -0.69536307	     12.49481000
